<svg width="294" height="303" viewBox="0 0 294 303" fill="none" xmlns="http://www.w3.org/2000/svg">
<path d="M29.6436 43.9991C29.6436 43.9991 83.5743 67.0043 87.2222 134.548" stroke="#FF4400" stroke-width="15.1176" stroke-linecap="round" stroke-linejoin="round"/>
<path d="M13.7695 65.0719C13.7695 65.0719 52.8126 81.3596 56.855 135.008" stroke="#FF4400" stroke-width="15.1176" stroke-linecap="round" stroke-linejoin="round"/>
<path d="M7.55859 93.3223L24.5167 113.935" stroke="#FF4400" stroke-width="15.1176" stroke-linecap="round" stroke-linejoin="round"/>
<path d="M43.5449 21.9142C43.5449 21.9142 114.927 61.207 111.279 134.548" stroke="#FF4400" stroke-width="15.1176" stroke-linecap="round" stroke-linejoin="round"/>
<path d="M74.8984 9.49136C74.8984 9.49136 165.21 63.5996 132.379 183.411" stroke="#FF4400" stroke-width="15.1176" stroke-linecap="round" stroke-linejoin="round"/>
<path d="M111.871 7.55893C111.871 7.55893 137.012 29.0918 150.323 57.8943" stroke="#FF4400" stroke-width="15.1176" stroke-linecap="round" stroke-linejoin="round"/>
<path d="M162.646 24.7668C162.646 24.7668 196.07 75.1021 196.07 131.143" stroke="#FF4400" stroke-width="15.1176" stroke-linecap="round" stroke-linejoin="round"/>
<path d="M134.941 240.463C134.941 240.463 189.365 168.135 158.012 80.8995" stroke="#FF4400" stroke-width="15.1176" stroke-linecap="round" stroke-linejoin="round"/>
<path d="M197.056 34.337C197.056 34.337 274.057 154.148 160.083 295.124" stroke="#FF4400" stroke-width="15.1176" stroke-linecap="round" stroke-linejoin="round"/>
<path d="M194.985 154.148C194.985 154.148 193.999 218.378 145.688 268.254" stroke="#FF4400" stroke-width="15.1176" stroke-linecap="round" stroke-linejoin="round"/>
<path d="M249.409 95.7148C249.409 95.7148 253.55 140.805 250.494 165.651" stroke="#FF4400" stroke-width="15.1176" stroke-linecap="round" stroke-linejoin="round"/>
<path d="M244.282 205.035C244.282 205.035 241.225 221.323 235.112 227.028" stroke="#FF4400" stroke-width="15.1176" stroke-linecap="round" stroke-linejoin="round"/>
<path d="M226.831 249.113L218.647 260.616" stroke="#FF4400" stroke-width="15.1176" stroke-linecap="round" stroke-linejoin="round"/>
<path d="M286.381 205.035C286.381 205.035 281.254 239.543 267.944 254.819" stroke="#FF4400" stroke-width="15.1176" stroke-linecap="round" stroke-linejoin="round"/>
<path d="M279.282 122.585V136.94" stroke="#FF4400" stroke-width="15.1176" stroke-linecap="round" stroke-linejoin="round"/>
</svg>
